# xmcd CD database file
#
# Track frame offsets:
#	150
#	55025
#	102615
#	116922
#	133187
#	181595
#	200855
#
# Disc length: 3041 seconds
#
# Revision: 0
# Processed by: cddbd v1.5.2PL0 Copyright (c) Steve Scherf et al.
# Submitted via: CDex 1.70beta2
#
DISCID=680bdf07
DTITLE=Takehiro Honda - See All Kind
DYEAR=1992
DGENRE=Jazz
TTITLE0=Mystery Circle - Stella By Starlight
TTITLE1=Summertime
TTITLE2=Ku Ongea
TTITLE3=In A Sentimentel Mood
TTITLE4=I Thought About You
TTITLE5=Left Alone - Slim Is gone
TTITLE6=See All Kind
EXTD=YEAR: 1992
EXTT0=
EXTT1=
EXTT2=
EXTT3=
EXTT4=
EXTT5=
EXTT6=
PLAYORDER=
